<svg width="33" height="26" viewBox="0 0 33 26" fill="none" xmlns="http://www.w3.org/2000/svg">
<path fill-rule="evenodd" clip-rule="evenodd" d="M13.6321 0.692491L3.60805 4.03115C2.30582 4.46488 1.8661 4.72072 1.43336 5.08903C1.00062 5.45734 0.681158 5.90271 0.469883 6.43225C0.258607 6.96179 0.155518 7.4627 0.155518 8.84446V23.9194C0.155518 24.5912 0.224948 24.8348 0.355324 25.0804C0.485701 25.326 0.677022 25.5188 0.920805 25.6501C1.16459 25.7815 1.40639 25.8514 2.07322 25.8514H30.8991C31.5659 25.8514 31.8077 25.7815 32.0515 25.6501C32.2953 25.5188 32.4866 25.326 32.617 25.0804C32.7474 24.8348 32.8168 24.5912 32.8168 23.9194V8.81132C32.8168 7.43887 32.7156 6.94152 32.5077 6.41503C32.2997 5.88855 31.985 5.44498 31.5578 5.07637C31.1307 4.70776 30.6963 4.45038 29.4073 4.00621L19.8845 0.724837C18.5429 0.262525 18.0804 0.142417 17.5456 0.0622063C17.0108 -0.0180044 16.5132 -0.0205784 15.9777 0.054095C15.4421 0.128768 14.9784 0.244085 13.6321 0.692491ZM2.64875 23.3396H10.9175V10.6216C10.9175 10.0693 11.3652 9.62162 11.9175 9.62162H21.0549C21.6071 9.62162 22.0548 10.0693 22.0548 10.6216V23.3396H30.3236V8.81132C30.3236 7.8378 30.2885 7.5901 30.1911 7.34371C30.1326 7.19544 30.0562 7.08784 29.9359 6.98404C29.736 6.81153 29.5147 6.69789 28.6004 6.38283L19.0776 3.10146C17.9373 2.70852 17.5658 2.60472 17.1784 2.54662C16.8786 2.50164 16.6198 2.5003 16.3195 2.54217C15.9315 2.59626 15.559 2.69621 14.4147 3.07733L4.39066 6.41599C3.46807 6.72327 3.24479 6.83547 3.04236 7.00776C2.92041 7.11155 2.84277 7.2198 2.78323 7.36902C2.6844 7.61673 2.64875 7.86553 2.64875 8.84446V23.3396Z" fill="#F2F2F2"/>
</svg>
